HIERARCHY
ROOT hip
{
	OFFSET 0.000000 0.000000 0.000000 
	CHANNELS 6 Xposition Yposition Zposition Xrotation Zrotation Yrotation
	JOINT abdomen
	{
		OFFSET 0.000000 3.402643 0.000000 
		CHANNELS 3 Xrotation Zrotation Yrotation
		JOINT chest
		{
			OFFSET 0.000000 8.438565 -0.680529 
			CHANNELS 3 Xrotation Zrotation Yrotation
			JOINT neck
			{
				OFFSET 0.000000 10.207942 -0.272212 
				CHANNELS 3 Xrotation Zrotation Yrotation
				JOINT head
				{
					OFFSET 0.000000 3.130431 0.000000 
					CHANNELS 3 Xrotation Zrotation Yrotation
					End Site
					{
						OFFSET 0.000000 3.130435 0.000000 
					}
				}
			}
			JOINT lCollar
			{
				OFFSET 3.470700 6.669187 -0.816635 
				CHANNELS 3 Yrotation Zrotation Xrotation
				JOINT lShldr
				{
					OFFSET 3.198488 0.000000 0.000000 
					CHANNELS 3 Zrotation Yrotation Xrotation
					JOINT lForeArm
					{
						OFFSET 10.139888 0.000000 0.000000 
						CHANNELS 3 Yrotation Zrotation Xrotation
						JOINT lHand
						{
							OFFSET 8.370511 0.000000 0.000000 
							CHANNELS 3 Zrotation Yrotation Xrotation
							End Site
							{
								OFFSET 4.083176 0.000000 0.000000 
							}
						}
					}
				}
			}
			JOINT rCollar
			{
				OFFSET -3.470700 6.669187 -0.816635 
				CHANNELS 3 Yrotation Zrotation Xrotation
				JOINT rShldr
				{
					OFFSET -3.198488 0.000000 0.000000 
					CHANNELS 3 Zrotation Yrotation Xrotation
					JOINT rForeArm
					{
						OFFSET -10.139888 0.000000 0.000000 
						CHANNELS 3 Yrotation Zrotation Xrotation
						JOINT rHand
						{
							OFFSET -8.370511 0.000000 0.000000 
							CHANNELS 3 Zrotation Yrotation Xrotation
							End Site
							{
								OFFSET -4.083176 0.000000 0.000000 
							}
						}
					}
				}
			}
		}
	}
	JOINT lThigh
	{
		OFFSET 5.308129 -1.633274 1.361059 
		CHANNELS 3 Xrotation Zrotation Yrotation
		JOINT lShin
		{
			OFFSET -2.041588 -20.007561 0.000000 
			CHANNELS 3 Xrotation Zrotation Yrotation
			JOINT lFoot
			{
				OFFSET 0.000000 -19.190928 -1.224953 
				CHANNELS 3 Xrotation Yrotation Zrotation
				End Site
				{
					OFFSET 0.000000 -2.449906 4.627600 
				}
			}
		}
	}
	JOINT rThigh
	{
		OFFSET -5.308129 -1.633274 1.361059 
		CHANNELS 3 Xrotation Zrotation Yrotation
		JOINT rShin
		{
			OFFSET 2.041588 -20.007561 0.000000 
			CHANNELS 3 Xrotation Zrotation Yrotation
			JOINT rFoot
			{
				OFFSET 0.000000 -19.190928 -1.224953 
				CHANNELS 3 Xrotation Yrotation Zrotation
				End Site
				{
					OFFSET 0.000000 -2.449906 4.627600 
				}
			}
		}
	}
}
MOTION
Frames: 18
Frame Time: 0.016667
-1.501165 44.918922 -4.037212 -5.306710 5.387100 12.420700 -17.157700 -2.419980 -7.142800 16.854601 7.318850 -4.124490 1.910180 7.989270 -0.945248 8.593040 7.710370 0.606148 2.000000 -2.000000 0.000000 -46.258301 -56.595501 137.979004 127.120003 -0.126448 0.126601 0.053407 -0.052324 -155.955002 -2.000000 2.000000 0.000000 56.401001 -5.575560 163.121002 -67.803299 0.266499 0.126591 179.906998 179.886002 2.336170 -6.952947 -7.485378 1.367797 30.183073 2.770008 2.219390 -11.112487 4.393960 -0.254744 -39.776932 -3.860822 13.895271 87.147087 0.881855 -4.627466 -9.531615 -9.358070 -2.118252 
-1.358809 44.997166 -4.207146 -5.381130 4.910010 12.614300 -16.869400 -2.537870 -7.656230 16.951700 7.485330 -4.405590 1.864810 8.231880 -0.830150 8.643710 7.816810 0.700710 2.000000 -2.000000 0.000000 -48.851898 -58.349499 140.147003 128.828003 -0.123003 0.123912 0.053831 -0.053537 -156.414001 -2.000000 2.000000 0.000000 56.957401 -5.906520 162.651993 -66.318901 0.269761 0.125210 179.908005 179.886993 3.019770 -7.069170 -7.168319 1.199384 30.054256 2.786712 2.225656 -10.865973 4.425809 -0.281064 -42.501770 -3.199735 14.044024 90.107307 1.220938 -4.671549 -9.856629 -8.775824 -1.974028 
-1.240495 45.087273 -4.354534 -5.327660 4.317280 12.889200 -16.617001 -2.665620 -8.197170 17.098801 7.564490 -4.684150 1.682990 8.552100 -0.759570 8.615810 7.943730 0.775154 2.000000 -2.000000 0.000000 -52.414299 -59.661598 143.485992 130.479004 -0.119755 0.121219 0.052949 -0.050978 -155.447006 -2.000000 2.000000 0.000000 57.376999 -6.286290 162.171997 -65.020103 0.272585 0.123933 179.899002 179.888000 3.635000 -7.281424 -6.689743 1.179152 29.826641 2.807404 2.224709 -10.554173 4.212564 -0.332780 -45.280502 -2.592175 13.880670 92.676384 1.506311 -4.723927 -10.152213 -8.082095 -1.791309 
-1.122190 45.177380 -4.501933 -5.274790 3.714720 13.163200 -16.362000 -2.786960 -8.749530 17.236099 7.643550 -4.963610 1.490420 8.863240 -0.685022 8.588050 8.080400 0.850235 2.000000 -2.000000 0.000000 -56.260700 -60.865501 147.108994 132.128998 -0.116585 0.118434 0.052119 -0.048430 -154.490005 -2.000000 2.000000 0.000000 57.806499 -6.666060 161.692993 -63.721199 0.275379 0.122592 179.910004 179.899002 4.259970 -7.449090 -6.179888 1.151002 29.502445 2.796749 2.187931 -10.215399 4.014918 -0.376048 -48.070534 -1.992422 13.721188 95.315346 1.817417 -4.732972 -10.488442 -7.405704 -1.628128 
-1.014635 45.273922 -4.642413 -5.283710 3.568790 13.469000 -16.090300 -3.012850 -9.220290 17.294300 7.760990 -5.226090 1.166410 8.980650 -0.771138 8.509540 8.110640 0.841521 2.000000 -2.000000 0.000000 119.070999 -118.217003 -28.008801 133.720993 -0.113605 0.115662 0.050862 -0.044267 -152.936996 -2.000000 2.000000 0.000000 58.284401 -7.122970 160.774002 -62.773998 0.277398 0.121575 179.910995 179.901001 4.758020 -7.285338 -6.163523 1.102184 28.859066 2.842426 2.159765 -9.751810 3.893255 -0.440410 -50.640324 -1.992984 13.546204 97.612068 2.086186 -4.747680 -11.101748 -6.682527 -1.443361 
-0.907088 45.370480 -4.782891 -5.302400 3.413100 13.766000 -15.817000 -3.238630 -9.691600 17.342699 7.878370 -5.489670 0.841579 9.088590 -0.848984 8.441000 8.150480 0.825088 2.000000 -2.000000 0.000000 114.122002 -117.504997 -22.861900 135.302994 -0.110721 0.112826 0.049719 -0.040072 -151.384995 -2.000000 2.000000 0.000000 58.772099 -7.579870 159.845001 -61.826698 0.279399 0.120524 179.912003 179.901993 5.256060 -7.112998 -6.125131 1.070641 28.177898 2.859566 2.105189 -9.237285 3.780071 -0.447099 -53.269871 -1.985773 13.379660 99.949364 2.350172 -4.743731 -11.716493 -5.972501 -1.268535 
-0.817462 45.475155 -4.922976 -5.409580 3.334720 13.893900 -15.411300 -3.402080 -10.078500 17.558399 8.045760 -5.703200 0.356307 9.316310 -0.924335 8.323890 8.249370 0.835249 2.000000 -2.000000 0.000000 109.372002 -117.087997 -17.326000 136.669998 -0.108292 0.110312 0.049020 -0.037259 -150.348999 -2.000000 2.000000 0.000000 59.161800 -7.899590 158.701996 -61.113800 0.280893 0.119712 179.912003 179.901993 5.461160 -6.744753 -6.143794 1.092645 27.306763 2.901688 2.039466 -8.702802 3.763532 -0.471822 -55.657486 -1.953217 13.120319 101.785736 2.554826 -4.747860 -12.305815 -5.619053 -1.102517 
-0.727837 45.579697 -5.063052 -5.516690 3.246640 14.023000 -15.014100 -3.556030 -10.468900 17.774200 8.213090 -5.904320 -0.119705 9.533390 -1.001240 8.216600 8.348130 0.846428 2.000000 -2.000000 0.000000 104.509003 -116.886002 -11.691900 138.028000 -0.105941 0.107759 0.048379 -0.034460 -149.324005 -2.000000 2.000000 0.000000 59.561298 -8.219300 157.548996 -60.391102 0.282398 0.118869 179.912994 179.901993 5.656470 -6.384166 -6.144119 1.106133 26.494736 2.935421 1.970373 -8.219825 3.737988 -0.488915 -57.988338 -1.921557 12.878755 103.643867 2.781303 -4.735833 -12.984957 -5.266531 -0.914190 
-0.628953 45.639126 -5.180916 -5.555710 3.226990 14.042200 -14.786000 -3.781590 -10.800700 17.833200 8.242760 -6.102400 -0.778581 9.520130 -1.041110 7.940250 8.351510 0.836018 2.000000 -2.000000 0.000000 99.646698 -117.456001 -6.038870 139.335999 -0.103732 0.105246 0.047643 -0.030926 -148.035004 -2.000000 2.000000 0.000000 59.863098 -8.822280 156.416000 -59.854000 0.283509 0.118230 179.912003 179.901993 5.509990 -6.179729 -6.198516 1.333359 25.940229 2.959109 1.933977 -7.835537 3.559360 -0.529562 -60.220943 -1.970324 12.565660 105.039871 2.955600 -4.738672 -13.629064 -4.902833 -0.713627 
-0.530075 45.698418 -5.298793 -5.604460 3.197560 14.071600 -14.556500 -4.010560 -11.143200 17.902000 8.272490 -6.289250 -1.428110 9.505940 -1.070190 7.654030 8.354810 0.812989 2.000000 -2.000000 0.000000 95.042999 -118.231003 -0.639153 140.645004 -0.101581 0.102684 0.046992 -0.027404 -146.755997 -2.000000 2.000000 0.000000 60.165001 -9.415490 155.272003 -59.307098 0.284634 0.117570 179.912003 179.901993 5.363480 -5.892589 -6.233918 1.550804 25.308937 2.963185 1.894214 -7.448368 3.381020 -0.547789 -62.432190 -2.020614 12.236929 106.494606 3.115222 -4.734430 -14.329531 -4.548595 -0.482696 
-0.429290 45.757717 -5.402088 -5.730150 2.924790 13.974600 -14.087000 -4.060470 -11.420700 18.218300 8.186630 -6.416520 -1.805860 9.467240 -1.113570 7.624310 8.345390 0.837423 2.000000 -2.000000 0.000000 91.392799 -118.425003 3.188530 141.348007 -0.100450 0.101286 0.046671 -0.025488 -146.061996 -2.000000 2.000000 0.000000 60.475899 -9.382960 153.768005 -58.789600 0.285694 0.116934 179.912003 179.901993 5.568580 -5.772556 -5.979542 1.841415 25.029148 2.986763 1.853791 -7.172145 3.127788 -0.573920 -64.293114 -1.703508 11.700091 107.376465 3.229755 -4.714082 -14.928193 -4.338607 -0.297086 
-0.328504 45.816887 -5.505383 -5.846080 2.642450 13.870500 -13.616300 -4.113470 -11.706500 18.544399 8.100540 -6.553120 -2.182870 9.417580 -1.167380 7.584720 8.336080 0.850685 2.000000 -2.000000 0.000000 87.793701 -118.726997 6.948790 142.061005 -0.099320 0.099856 0.046374 -0.023570 -145.369003 -2.000000 2.000000 0.000000 60.777000 -9.350460 152.264008 -58.281799 0.286727 0.116302 179.912994 179.903000 5.783420 -5.638680 -5.723050 2.120715 24.748255 3.025841 1.836476 -6.912718 2.854621 -0.618348 -66.154884 -1.390077 11.180138 108.279259 3.334742 -4.720581 -15.557032 -4.131181 -0.089547 
-0.216738 45.852463 -5.600926 -6.041790 2.680360 13.681600 -13.207600 -4.251270 -11.942200 18.682899 8.003590 -6.675810 -2.351120 9.455150 -1.206040 7.644270 8.364660 0.880538 2.000000 -2.000000 0.000000 84.566498 -119.085999 9.916720 142.764008 -0.098223 0.098431 0.046472 -0.024219 -145.602997 -2.000000 2.000000 0.000000 61.087502 -9.229860 150.634003 -58.057098 0.287182 0.116019 179.910995 179.901001 4.816610 -5.261014 -5.779344 2.493113 24.290737 3.048959 1.788177 -6.663032 2.602085 -0.651519 -67.719070 -1.253011 10.949146 109.012192 3.415276 -4.702494 -16.205914 -3.807348 0.119285 
-0.104980 45.887920 -5.696471 -6.227740 2.718260 13.492900 -12.798000 -4.402030 -12.185600 18.821400 7.906570 -6.800340 -2.519400 9.492600 -1.244910 7.703720 8.383490 0.909831 2.000000 -2.000000 0.000000 81.418602 -119.522003 12.788100 143.466995 -0.097144 0.096993 0.046568 -0.024840 -145.828003 -2.000000 2.000000 0.000000 61.388199 -9.099540 149.003006 -57.842300 0.287617 0.115747 179.908997 179.899002 3.859580 -4.931274 -5.859060 2.870655 23.851711 3.086342 1.761724 -6.401434 2.340903 -0.677243 -69.273979 -1.097151 10.709377 109.734505 3.473413 -4.689325 -16.849609 -3.487927 0.341411 
-0.014919 45.916912 -5.773287 -6.423690 2.794870 13.055000 -12.442600 -4.526110 -12.356000 19.067900 7.897760 -6.893460 -2.901250 9.534400 -1.236190 7.595360 8.404190 0.934432 2.000000 -2.000000 0.000000 79.032898 -120.122002 14.534700 143.916000 -0.096464 0.096068 0.046835 -0.026487 -146.423996 -2.000000 2.000000 0.000000 61.610901 -8.950000 147.501007 -57.568901 0.288169 0.115399 179.908997 179.897995 3.595910 -4.541565 -5.929544 3.553960 23.452744 3.115337 1.732924 -6.194177 2.045679 -0.694356 -70.587822 -0.649168 10.689821 110.309753 3.538455 -4.674438 -17.305353 -3.424872 0.528592 
0.075140 45.945915 -5.850093 -6.619680 2.871390 12.606800 -12.087000 -4.650300 -12.527800 19.304600 7.888770 -6.978230 -3.283190 9.575620 -1.226340 7.496870 8.424770 0.970156 2.000000 -2.000000 0.000000 76.715698 -120.761002 16.194799 144.365005 -0.095792 0.095137 0.047114 -0.028104 -147.009995 -2.000000 2.000000 0.000000 61.833500 -8.790750 145.998001 -57.305199 0.288699 0.115060 179.908997 179.897003 3.332240 -4.113854 -5.992267 4.212049 22.995752 3.130500 1.692146 -5.994187 1.773450 -0.700382 -71.909348 -0.190547 10.647372 110.883553 3.582940 -4.655510 -17.776085 -3.380037 0.717536 
0.172649 45.965523 -5.927718 -6.746390 2.802750 12.169000 -11.846500 -4.762140 -12.721800 19.364100 7.762010 -7.084760 -3.410800 9.601850 -1.276180 7.496980 8.434520 0.970740 2.000000 -2.000000 0.000000 74.965698 -121.594002 17.522499 144.434006 -0.095690 0.094995 0.047034 -0.027646 -146.843994 -2.000000 2.000000 0.000000 61.997601 -8.709970 144.639999 -57.197800 0.288914 0.114921 179.908997 179.897995 3.566620 -3.922510 -5.961267 4.686785 22.718939 3.131564 1.676168 -5.839137 1.641021 -0.675394 -73.067726 0.245064 10.546461 111.319794 3.629709 -4.643919 -18.213041 -3.491372 0.851775 
0.270153 45.985104 -6.005332 -6.863260 2.724510 11.733100 -11.605600 -4.864430 -12.918900 19.423500 7.635240 -7.181780 -3.528540 9.628150 -1.323930 7.507060 8.453910 0.963579 2.000000 -2.000000 0.000000 73.283798 -122.445999 18.762300 144.492004 -0.095603 0.094873 0.046950 -0.027161 -146.667999 -2.000000 2.000000 0.000000 62.151901 -8.629200 143.272995 -57.080601 0.289149 0.114769 179.899994 179.889008 3.801010 -3.748695 -5.928755 5.164114 22.507078 3.162656 1.664610 -5.732244 1.524871 -0.684971 -74.214371 0.690469 10.416021 111.734276 3.648089 -4.622836 -18.648397 -3.609430 0.970992 
